<svg xmlns="http://www.w3.org/2000/svg" viewBox="0 0 219.2 136.3"><style type="text/css">  
	.st0{fill:#61A63A;}
</style><path class="st0" d="M8.1 101h4.7v18.5c0 3-0.1 3.6-0.3 4.5 -0.7 2.8-3.3 4.6-5.4 5.4L5 127c1.2-0.7 2.2-1.8 2.7-2.8 0.4-0.8 0.5-1.8 0.5-4.2V101z"/><path class="st0" d="M15.2 101h12.5l-0.5 3.7h-7.3v5.3h5.8v3.8h-5.8v10.1h-4.6V101z"/><path class="st0" d="M26.6 107.7l4-1.1c0.4 0.7 0.6 1.5 0.7 2.4 0.6-0.9 1.7-1.8 2.5-2.1 0.4-0.2 1-0.3 1.5-0.3 0.7 0 1 0.1 1.7 0.4l-1.2 3.9c-0.4-0.2-0.8-0.3-1.3-0.3 -1 0-1.9 0.5-2.7 1.4v12h-4.4v-11.3C27.3 110.3 27 108.6 26.6 107.7z"/><path class="st0" d="M43.8 106.7c2.4 0 4.3 0.8 5.7 2.5 1.4 1.6 1.9 3.4 1.9 6.2 0 2.9-0.7 4.9-2.1 6.5 -1.3 1.5-3 2.3-5.6 2.3 -4.6 0-7.6-3.4-7.6-8.8C36.2 110.2 39.3 106.7 43.8 106.7zM43.9 109.9c-1.1 0-1.9 0.7-2.3 1.7 -0.3 0.9-0.5 2.1-0.5 3.8 0 1.9 0.2 3.4 0.6 4.3 0.4 0.9 1.4 1.4 2.2 1.4 1.9 0 2.7-1.7 2.7-5.7 0-2.3-0.3-3.8-0.9-4.5C45.4 110.3 44.7 109.9 43.9 109.9z"/><path class="st0" d="M68.3 106l1.9 2.8c-1 0.9-1.9 1.3-3.1 1.3 -0.4 0-0.6 0-1.2-0.1 0.7 0.8 1 1.7 1 2.8 0 2.9-2.6 5-6.2 5 -0.2 0-0.3 0-0.7 0 -1.1 0.5-1.8 0.9-1.8 1.4 0 0.2 0.3 0.4 0.7 0.4l2.4 0c2.6 0 3.9 0.4 5.1 1.5 1 0.9 1.5 2.1 1.5 3.6 0 1.4-0.4 2.5-1.4 3.5 -1.5 1.6-4 2.2-6.7 2.2 -2.4 0-4.9-0.4-6.4-1.8 -0.9-0.9-1.4-1.9-1.4-3 0-0.9 0.2-1.4 0.4-1.7h4.1c-0.1 0.4-0.2 0.5-0.2 1.1 0 1.4 1.1 2.1 3.2 2.1 1.3 0 2.2-0.2 2.8-0.6 0.6-0.4 1.1-1.1 1.1-1.7 0-0.7-0.3-1.3-0.8-1.5 -0.5-0.2-1.1-0.4-2.3-0.5 -0.2 0-0.9 0-1.9 0 -2 0-3.3-0.2-4.1-0.5 -0.4-0.2-0.7-0.5-1-0.8 -0.2-0.4-0.3-0.9-0.3-1.4 0-0.6 0.2-1.2 0.5-1.6 0.5-0.6 1.6-1.1 2.6-1.3 -2.4-0.6-3.6-2.2-3.6-4.7 0-3.5 2.8-5.7 7.1-5.7 1 0 1.8 0.1 3 0.4 1.2 0.3 1.5 0.4 2.1 0.4C66 107.5 67.2 107 68.3 106zM59.6 109.9c-1.7 0-2.6 0.9-2.6 2.5 0 1.7 1.1 2.4 2.6 2.4 1.8 0 2.7-0.9 2.7-2.4C62.3 110.9 61.3 109.9 59.6 109.9z"/><path class="st0" d="M81.1 100.9h5l7.2 23h-5l-1.6-5.5H80l-1.6 5.5h-4.8L81.1 100.9zM81.1 114.6h4.5c0 0-0.8-2.4-1.3-4.6 -0.2-1.1-0.9-4.1-0.9-4.1s-0.7 2.7-1.1 4.4C81.9 112 81.6 113.1 81.1 114.6z"/><path class="st0" d="M93.1 107.7l4-1.1c0.4 0.7 0.6 1.5 0.7 2.4 0.6-0.9 1.7-1.8 2.5-2.1 0.4-0.2 1-0.3 1.5-0.3 0.7 0 1 0.1 1.7 0.4l-1.2 3.9c-0.4-0.2-0.8-0.3-1.3-0.3 -1 0-1.9 0.5-2.7 1.4v12h-4.4v-11.3C93.8 110.3 93.5 108.6 93.1 107.7z"/><path class="st0" d="M114 107l-1.1 2.9H110v8.6c0 2.1 0.4 2.7 1.9 2.7 0.4 0 0.8-0.1 1.6-0.3l0.6 2.6c-1.3 0.5-2.4 0.8-3.6 0.8 -2.2 0-4.1-1-4.6-2.5 -0.3-0.7-0.3-1.1-0.3-2.6v-9.3h-1.7V107h1.7c0-1.7 0-2.8 0.2-4l4.5-1.1c-0.2 1.6-0.3 3.4-0.3 5.1H114z"/><path class="st0" d="M117.6 99.6c1.5 0 2.7 1.2 2.7 2.7s-1.2 2.7-2.7 2.7c-1.5 0-2.7-1.2-2.7-2.7S116.1 99.6 117.6 99.6zM115.3 107.3l4.4-0.7v17.3h-4.4V107.3z"/><path class="st0" d="M131.3 103.2c-1-0.5-1.3-0.6-1.8-0.6 -1.1 0-1.9 0.7-1.9 1.9v2.4h4.3l-1.1 3.1h-3.1v13.8h-4.3v-13.8h-1.5V107h1.6c-0.1-0.7-0.2-1.5-0.2-2.3 0-3.3 2-5.3 5.5-5.3 1.5 0 2.6 0.3 4 1.1L131.3 103.2z"/><path class="st0" d="M131.9 109c1.1-0.7 1.6-0.9 2.7-1.4 1.7-0.7 3.1-1 4.6-1 2.8 0 4.8 1.1 5.5 2.9 0.2 0.7 0.3 1.2 0.3 3l-0.1 5.7c0 0.1 0 0.2 0 0.3 0 1.8 0.3 2.5 1.6 3.5l-2.3 2.7c-1-0.4-1.9-1.2-2.4-2 -0.6 0.6-0.7 0.7-1 0.9 -0.8 0.6-2 0.9-3.4 0.9 -3.8 0-5.8-1.9-5.8-5.3 0-4 2.7-5.8 8.1-5.8 0.3 0 0.5 0 1 0v-0.7c0-1.9-0.4-2.5-2-2.5 -1.4 0-3.1 0.7-4.9 1.9L131.9 109zM140.6 116.5h-0.2c-3.1 0-4.1 0.6-4.1 2.6 0 1.3 0.8 2.2 1.9 2.2 0.8 0 1.7-0.4 2.3-1.2L140.6 116.5z"/><path class="st0" d="M159.4 108.5l-2.1 2.9c-0.9-0.8-1.8-1.3-2.7-1.3 -2 0-2.9 1.7-2.9 5.7 0 2.2 0.3 3.5 0.9 4.3 0.5 0.6 1.2 1 2 1 1 0 1.9-0.4 3-1.4l0.3-0.2 2 2.7c-0.7 0.7-1 0.9-1.6 1.3 -1.2 0.7-2.5 1.1-4.1 1.1 -4.7 0-7.4-3.2-7.4-8.7 0-3.9 1.5-6.5 3.5-7.8 1.1-0.8 2.8-1.3 4.2-1.3 1.1 0 2.3 0.3 3.3 0.8C158.4 107.6 158.7 107.8 159.4 108.5z"/><path class="st0" d="M170.4 107l-1.1 2.9h-2.8v8.6c0 2.1 0.4 2.7 1.9 2.7 0.4 0 0.8-0.1 1.6-0.3l0.6 2.6c-1.3 0.5-2.4 0.8-3.6 0.8 -2.2 0-4.1-1-4.6-2.5 -0.3-0.7-0.3-1.1-0.3-2.6v-9.3h-1.7V107h1.7c0-1.7 0-2.8 0.2-4l4.5-1.1c-0.2 1.6-0.3 3.4-0.3 5.1H170.4z"/><path class="st0" d="M178.4 106.7c2.4 0 4.3 0.8 5.7 2.5 1.4 1.6 1.9 3.4 1.9 6.2 0 2.9-0.7 4.9-2.1 6.5 -1.3 1.5-3 2.3-5.6 2.3 -4.6 0-7.6-3.4-7.6-8.8C170.8 110.2 173.8 106.7 178.4 106.7zM178.4 109.9c-1.1 0-1.9 0.7-2.3 1.7 -0.3 0.9-0.5 2.1-0.5 3.8 0 1.9 0.2 3.4 0.6 4.3 0.4 0.9 1.4 1.4 2.2 1.4 1.9 0 2.7-1.7 2.7-5.7 0-2.3-0.3-3.8-0.9-4.5C179.9 110.3 179.2 109.9 178.4 109.9z"/><path class="st0" d="M187.3 107.7l4-1.1c0.4 0.7 0.6 1.5 0.7 2.4 0.6-0.9 1.7-1.8 2.5-2.1 0.4-0.2 1-0.3 1.5-0.3 0.7 0 1 0.1 1.7 0.4l-1.2 3.9c-0.4-0.2-0.8-0.3-1.3-0.3 -1 0-1.9 0.5-2.7 1.4v12h-4.4v-11.3C187.9 110.3 187.7 108.6 187.3 107.7z"/><path class="st0" d="M197.5 107.3l4.5-0.5 2.9 9.8c0.3 1 0.9 3.5 0.9 3.5s0.3-1.9 0.5-2.7c0.3-1.1 0.3-1.2 0.7-2.3l2.5-8h4.7l-6.1 17.1c-1.2 3.3-2 4.7-3.2 5.6 -1.1 0.8-2.6 1.4-4.1 1.6l-1.5-2.9c1-0.3 2.1-0.7 2.7-1.1 0.5-0.4 0.9-0.8 1.3-1.4 0.4-0.7 0.6-1 1-2h-1.1c-0.3-0.8-0.4-1.1-0.7-2 -0.3-1-0.9-2.7-0.9-2.8L197.5 107.3z"/><path class="st0" d="M109.6 65.7c-16.7 0-30.3-13.6-30.3-30.3S92.9 5 109.6 5s30.3 13.6 30.3 30.3S126.3 65.7 109.6 65.7zM109.6 10.4c-13.8 0-25 11.2-25 25s11.2 25 25 25 25-11.2 25-25S123.3 10.4 109.6 10.4z"/><rect x="79.7" y="77.9" class="st0" width="60.3" height="5.4"/></svg>