<svg xmlns="http://www.w3.org/2000/svg" viewBox="0 0 173.2 135.2"><style type="text/css">  
	.st0{fill:#61A63A;}
</style><path class="st0" d="M8.1 99.9h4.7v18.5c0 3-0.1 3.6-0.3 4.5 -0.7 2.8-3.3 4.6-5.4 5.4L5 125.9c1.2-0.7 2.2-1.8 2.7-2.8 0.4-0.8 0.5-1.8 0.5-4.2V99.9z"/><path class="st0" d="M15.2 99.9h12.5l-0.5 3.7h-7.3v5.3h5.8v3.8h-5.8v10.1h-4.6V99.9z"/><path class="st0" d="M26.6 106.6l4-1.1c0.4 0.7 0.6 1.5 0.7 2.4 0.6-0.9 1.7-1.8 2.5-2.1 0.4-0.2 1-0.3 1.5-0.3 0.7 0 1 0.1 1.7 0.4l-1.2 3.9c-0.4-0.2-0.8-0.3-1.3-0.3 -1 0-1.9 0.5-2.7 1.4v12h-4.4v-11.3C27.3 109.3 27 107.5 26.6 106.6z"/><path class="st0" d="M43.8 105.6c2.4 0 4.3 0.8 5.7 2.5 1.4 1.6 1.9 3.4 1.9 6.2 0 2.9-0.7 4.9-2.1 6.5 -1.3 1.5-3 2.3-5.6 2.3 -4.6 0-7.6-3.4-7.6-8.8C36.2 109.1 39.3 105.6 43.8 105.6zM43.9 108.9c-1.1 0-1.9 0.7-2.3 1.7 -0.3 0.9-0.5 2.1-0.5 3.8 0 1.9 0.2 3.4 0.6 4.3 0.4 0.9 1.4 1.4 2.2 1.4 1.9 0 2.7-1.7 2.7-5.7 0-2.3-0.3-3.8-0.9-4.5C45.4 109.2 44.7 108.9 43.9 108.9z"/><path class="st0" d="M68.3 105l1.9 2.8c-1 0.9-1.9 1.3-3.1 1.3 -0.4 0-0.6 0-1.2-0.1 0.7 0.8 1 1.7 1 2.8 0 2.9-2.6 5-6.2 5 -0.2 0-0.3 0-0.7 0 -1.1 0.5-1.8 0.9-1.8 1.4 0 0.2 0.3 0.4 0.7 0.4l2.4 0c2.6 0 3.9 0.4 5.1 1.5 1 0.9 1.5 2.1 1.5 3.6 0 1.4-0.4 2.5-1.4 3.5 -1.5 1.6-4 2.2-6.7 2.2 -2.4 0-4.9-0.4-6.4-1.8 -0.9-0.9-1.4-1.9-1.4-3 0-0.9 0.2-1.4 0.4-1.7h4.1c-0.1 0.4-0.2 0.5-0.2 1.1 0 1.4 1.1 2.1 3.2 2.1 1.3 0 2.2-0.2 2.8-0.6 0.6-0.4 1.1-1.1 1.1-1.7 0-0.7-0.3-1.3-0.8-1.5 -0.5-0.2-1.1-0.4-2.3-0.5 -0.2 0-0.9 0-1.9 0 -2 0-3.3-0.2-4.1-0.5 -0.4-0.2-0.7-0.5-1-0.8 -0.2-0.4-0.3-0.9-0.3-1.4 0-0.6 0.2-1.2 0.5-1.6 0.5-0.6 1.6-1.1 2.6-1.3 -2.4-0.6-3.6-2.2-3.6-4.7 0-3.5 2.8-5.7 7.1-5.7 1 0 1.8 0.1 3 0.4 1.2 0.3 1.5 0.4 2.1 0.4C66 106.4 67.2 105.9 68.3 105zM59.6 108.9c-1.7 0-2.6 0.9-2.6 2.5 0 1.7 1.1 2.4 2.6 2.4 1.8 0 2.7-0.9 2.7-2.4C62.3 109.8 61.3 108.9 59.6 108.9z"/><path class="st0" d="M76.3 99.8H84c2.8 0 4.3 0.4 5.6 1.7 1.3 1.1 1.9 2.4 1.9 4.1 0 1.6-0.6 2.9-1.6 3.9 -0.7 0.6-1.1 0.9-2.1 1.2 3.1 0.9 4.6 2.8 4.6 5.8 0 3.2-2 6.1-6 6.3 -0.7 0-1.7 0.1-2.9 0.1h-7.2V99.8zM80.8 103.8v5.3h2.7c1.1 0 1.6-0.1 2-0.3 0.6-0.3 1.2-1.5 1.2-2.4 0-1-0.5-1.9-1.3-2.3 -0.4-0.2-0.9-0.3-1.9-0.3H80.8zM80.9 112.9v6.2h3c1 0 1.6-0.2 2.1-0.5 0.7-0.5 1.2-1.6 1.2-2.7 0-1.3-0.7-2.4-1.7-2.8 -0.6-0.2-0.7-0.2-1.8-0.2H80.9z"/><path class="st0" d="M96.6 98.5c1.5 0 2.7 1.2 2.7 2.7 0 1.5-1.2 2.7-2.7 2.7 -1.5 0-2.7-1.2-2.7-2.7C93.8 99.7 95.1 98.5 96.6 98.5zM94.3 106.2l4.4-0.7v17.3h-4.4V106.2z"/><path class="st0" d="M100.9 106.6l3.9-1.1c0.4 0.7 0.6 1.4 0.6 2.1 1-0.7 1.2-0.9 1.9-1.3 0.9-0.5 2-0.7 3-0.7 1.9 0 3.5 1 4.1 2.4 0.2 0.6 0.3 1.4 0.3 2.4v12.4h-4.4v-11c0-1.9-0.3-2.5-1.5-2.5 -0.9 0-2 0.6-3.1 1.5v12h-4.4v-12.3C101.5 109.1 101.3 107.7 100.9 106.6z"/><path class="st0" d="M126.3 105.9l-1.1 2.9h-2.8v8.6c0 2.1 0.4 2.7 1.9 2.7 0.4 0 0.8-0.1 1.6-0.3l0.6 2.6c-1.3 0.5-2.4 0.8-3.6 0.8 -2.2 0-4.1-1-4.6-2.5 -0.3-0.7-0.3-1.1-0.3-2.6v-9.3h-1.7V106h1.7c0-1.7 0-2.8 0.2-4l4.5-1.1c-0.2 1.6-0.3 3.4-0.3 5.1H126.3z"/><path class="st0" d="M127.3 106.6l4-1.1c0.4 0.7 0.6 1.5 0.7 2.4 0.6-0.9 1.7-1.8 2.5-2.1 0.4-0.2 1-0.3 1.5-0.3 0.7 0 1 0.1 1.7 0.4l-1.2 3.9c-0.4-0.2-0.8-0.3-1.3-0.3 -1 0-1.9 0.5-2.7 1.4v12H128v-11.3C128 109.3 127.7 107.5 127.3 106.6z"/><path class="st0" d="M137.6 107.9c1.1-0.7 1.6-0.9 2.7-1.4 1.7-0.7 3.1-1 4.6-1 2.8 0 4.8 1.1 5.5 2.9 0.2 0.7 0.3 1.2 0.3 3l-0.1 5.7c0 0.1 0 0.2 0 0.3 0 1.8 0.3 2.5 1.6 3.5l-2.3 2.7c-1-0.4-1.9-1.2-2.4-2 -0.6 0.6-0.7 0.7-1 0.9 -0.8 0.6-2 0.9-3.4 0.9 -3.8 0-5.8-1.9-5.8-5.3 0-4 2.7-5.8 8.1-5.8 0.3 0 0.5 0 1 0v-0.7c0-1.9-0.4-2.5-2-2.5 -1.4 0-3.1 0.7-4.9 1.9L137.6 107.9zM146.3 115.4h-0.2c-3.1 0-4.1 0.6-4.1 2.6 0 1.3 0.8 2.2 1.9 2.2 0.8 0 1.7-0.4 2.3-1.2L146.3 115.4z"/><path class="st0" d="M151.4 106.2l4.5-0.5 2.9 9.8c0.3 1 0.9 3.5 0.9 3.5s0.3-1.9 0.5-2.7c0.3-1.1 0.3-1.2 0.7-2.3l2.5-8h4.7l-6.1 17.1c-1.2 3.3-2 4.7-3.2 5.6 -1.1 0.8-2.6 1.4-4.1 1.6l-1.5-2.9c1-0.3 2.1-0.7 2.7-1.1 0.5-0.4 0.9-0.8 1.3-1.4 0.4-0.7 0.6-1 1-2H157c-0.3-0.8-0.4-1.1-0.7-2 -0.3-1-0.9-2.7-0.9-2.8L151.4 106.2z"/><rect x="56.4" y="76.8" class="st0" width="60.3" height="5.4"/><polygon class="st0" points="99.5 30.8 99.5 36.1 107.5 36.1 89.4 54.3 89.4 15.4 95 21 98.8 17.2 86.6 5 74.4 17.2 78.2 21 84 15.2 84 54.3 65.8 36.1 73.7 36.1 73.7 30.8 56.4 30.8 56.4 48 61.8 48 61.8 39.7 86.7 64.6 111.4 39.9 111.4 48 116.8 48 116.8 30.8 "/></svg>